<?xml version="1.0" encoding="UTF-8"?>
<svg xmlns="http://www.w3.org/2000/svg" width="111.027" height="40" viewBox="0 0 111.027 40">
  <g transform="translate(-193 -189)">
    <path d="M0,134.782v29.091l40,10.909-10.909-40Z" transform="translate(193 54.218)" fill="#dc182d"></path>
    <path d="M23.423,157.666H18.776v-9.6l-4.315,6.547h-.1l-4.29-6.5v9.557H5.491V140.943h4.941l4.025,6.475,4.025-6.475h4.941Z" transform="translate(193.043 54.193)" fill="#fff"></path>
    <path d="M5762.529,13518.06v-17.679h3.366V13502a4.945,4.945,0,0,1,3.949-1.934c3.284,0,5.672,2.439,5.672,6.707s-2.388,6.73-5.672,6.73a4.883,4.883,0,0,1-3.949-1.961v6.521Zm3.366-13.543v4.529a3.848,3.848,0,0,0,2.89,1.459c1.934,0,3.23-1.51,3.23-3.735,0-2.2-1.3-3.712-3.23-3.712A3.77,3.77,0,0,0,5765.895,13504.517Zm19.124,5.486v-6.681H5782.9v-2.941h2.121v-3.5h3.4v3.5h2.6v2.941h-2.6v5.777c0,.8.421,1.405,1.164,1.405a1.852,1.852,0,0,0,1.167-.37l.716,2.545a4.156,4.156,0,0,1-2.809.82C5786.291,13513.5,5785.019,13512.279,5785.019,13510Zm-37.437-.743c0-3,2.412-4.136,4.455-4.136a5.27,5.27,0,0,1,4.054,1.563v-1.723c0-1.3-1.113-2.145-2.812-2.145a5.384,5.384,0,0,0-3.735,1.51l-1.272-2.253a8.408,8.408,0,0,1,5.594-2.015c2.914,0,5.591,1.167,5.591,4.852v8.268h-3.365v-1.323a5.305,5.305,0,0,1-4.054,1.642A4.264,4.264,0,0,1,5747.581,13509.26Zm3.393.078c0,1.193,1.086,1.883,2.412,1.883a3.366,3.366,0,0,0,2.7-1.113v-1.591a3.378,3.378,0,0,0-2.7-1.113C5752.06,13507.4,5750.974,13508.093,5750.974,13509.338Zm26.893,3.844v-12.8h3.366v12.8Zm-35.992,0v-8.081c0-1.194-.529-2.043-1.907-2.043a3.392,3.392,0,0,0-2.65,1.482v8.642h-3.393v-8.081c0-1.194-.532-2.043-1.91-2.043a3.43,3.43,0,0,0-2.65,1.51v8.614H5726v-12.8h3.365v1.669a5.6,5.6,0,0,1,4.187-1.987,3.388,3.388,0,0,1,3.552,2.334,5.433,5.433,0,0,1,4.4-2.334c2.358,0,3.763,1.245,3.763,3.871v9.248Zm35.646-16.193a2.014,2.014,0,1,1,2.016,2.012A2.028,2.028,0,0,1,5777.521,13496.988Z" transform="translate(-5488 -13297.982)" fill="#999"></path>
    <path d="M5766.395,13518.56h-4.366v-18.679h4.366v.895a5.4,5.4,0,0,1,3.449-1.213,5.735,5.735,0,0,1,4.443,1.923,8.956,8.956,0,0,1,0,10.579,5.723,5.723,0,0,1-4.444,1.936,5.351,5.351,0,0,1-3.449-1.229Zm-3.366-1h2.366v-7.479l.9,1.151a4.372,4.372,0,0,0,3.554,1.768,4.752,4.752,0,0,0,3.692-1.595,7.98,7.98,0,0,0,0-9.259,4.763,4.763,0,0,0-3.693-1.584,4.449,4.449,0,0,0-3.556,1.743l-.893,1.134v-2.559h-2.366Zm25.623-3.56a4.24,4.24,0,0,1-3.049-1.034,3.936,3.936,0,0,1-1.084-2.963v-6.181H5782.4v-3.941h2.121v-3.5h4.4v3.5h2.6v3.941h-2.6v5.277c0,.212.048.905.664.905a1.433,1.433,0,0,0,.816-.227l.6-.594,1.029,3.66-.233.208A4.551,4.551,0,0,1,5788.652,13514Zm-5.254-11.178h2.121V13510c0,1.988,1.054,3,3.133,3a4.113,4.113,0,0,0,2.235-.513l-.456-1.622a2.763,2.763,0,0,1-.853.14,1.718,1.718,0,0,1-1.664-1.905v-6.277h2.6v-1.941h-2.6v-3.5h-2.4v3.5H5783.4ZM5752.036,13514a4.757,4.757,0,0,1-4.955-4.74,4.334,4.334,0,0,1,1.657-3.588,5.42,5.42,0,0,1,3.3-1.048,6.423,6.423,0,0,1,3.554.961v-.62a1.391,1.391,0,0,0-.572-1.16,2.852,2.852,0,0,0-1.74-.484,4.868,4.868,0,0,0-3.4,1.376l-.464.432-1.783-3.158.3-.268a8.923,8.923,0,0,1,5.925-2.14,6.992,6.992,0,0,1,4.183,1.14,4.888,4.888,0,0,1,1.908,4.212v8.768h-4.365v-.711A6.313,6.313,0,0,1,5752.036,13514Zm0-8.376a4.481,4.481,0,0,0-2.688.841,3.327,3.327,0,0,0-1.266,2.795,3.485,3.485,0,0,0,1.278,2.807,4.285,4.285,0,0,0,2.677.934,4.818,4.818,0,0,0,3.673-1.465l.881-1.038v2.185h2.365v-7.768c0-3.6-2.769-4.352-5.091-4.352a8.008,8.008,0,0,0-4.954,1.632l.77,1.364a5.841,5.841,0,0,1,3.6-1.238c1.981,0,3.313,1.063,3.313,2.645v3.092l-.882-1.047A4.807,4.807,0,0,0,5752.036,13505.624Zm29.7,8.058h-4.366v-13.8h4.366Zm-3.366-1h2.366v-11.8h-2.366Zm-32.6,1h-4.393v-8.581c0-.719-.16-1.543-1.407-1.543a2.884,2.884,0,0,0-2.15,1.146v8.979h-4.393v-8.581c0-.719-.16-1.543-1.41-1.543a2.893,2.893,0,0,0-2.15,1.175v8.949H5725.5v-13.8h4.365v.974a6.262,6.262,0,0,1,3.687-1.292,3.975,3.975,0,0,1,3.672,1.878,6.038,6.038,0,0,1,4.28-1.878,4.255,4.255,0,0,1,3.117,1.1,4.426,4.426,0,0,1,1.146,3.275Zm-3.393-1h2.393v-8.748a3.485,3.485,0,0,0-.849-2.565,3.311,3.311,0,0,0-2.414-.806,4.915,4.915,0,0,0-3.978,2.1l-.567.892-.33-1a2.916,2.916,0,0,0-3.077-1.99,5.133,5.133,0,0,0-3.775,1.771l-.912,1.32v-2.773H5726.5v11.8h2.365v-8.272l.091-.129a3.9,3.9,0,0,1,3.059-1.723,2.256,2.256,0,0,1,2.41,2.543v7.581h2.393v-8.3l.088-.128a3.9,3.9,0,0,1,3.062-1.7,2.255,2.255,0,0,1,2.407,2.543Zm11.011-.961c-1.715,0-2.912-.979-2.912-2.383,0-1.434,1.2-2.435,2.912-2.435a3.842,3.842,0,0,1,3.1,1.313l.1.134v1.924l-.1.134A3.837,3.837,0,0,1,5753.386,13511.721Zm0-3.817c-.882,0-1.912.376-1.912,1.435,0,.955.96,1.383,1.912,1.383a3.027,3.027,0,0,0,2.2-.793v-1.23A3.032,3.032,0,0,0,5753.386,13507.9Zm15.4,3.1a4.355,4.355,0,0,1-3.3-1.673l-.09-.129v-4.84l.086-.127a4.237,4.237,0,0,1,3.3-1.679c2.2,0,3.73,1.732,3.73,4.212a4.552,4.552,0,0,1-1.011,3.029A3.526,3.526,0,0,1,5768.785,13511Zm-2.39-2.127a3.423,3.423,0,0,0,2.39,1.127,2.506,2.506,0,0,0,1.962-.859,3.576,3.576,0,0,0,.768-2.376,3.531,3.531,0,0,0-.768-2.354,2.514,2.514,0,0,0-1.962-.857,3.322,3.322,0,0,0-2.39,1.122Zm13.142-9.378a2.5,2.5,0,1,1,1.773-4.281,2.461,2.461,0,0,1,.738,1.77A2.515,2.515,0,0,1,5779.536,13499.5Zm0-4a1.5,1.5,0,0,0-1.516,1.488,1.534,1.534,0,0,0,1.516,1.512,1.513,1.513,0,0,0,1.512-1.512A1.484,1.484,0,0,0,5779.536,13495.5Z" transform="translate(-5488 -13297.982)" fill="rgba(0,0,0,0)"></path>
  </g>
</svg>
